# xmcd
#
# Track frame offsets:
#	150
#	14657
#	26423
#	45639
#	54400
#	68548
#	79933
#	99392
#	114802
#	130605
#	141717
#	153914
#	166915
#	180816
#
# Disc length: 2547 seconds
#
# Revision: 0
# Processed by: cddbd v1.5.2PL0 Copyright (c) Steve Scherf et al.
# Submitted via: EasyCDDAExtractor 16.0.8.2
#
DISCID=a609f10e
DTITLE=Άνευ ερμηνευτού - Τα οργανικά της Σμύρνης-βιολί Γ. Κόρος
DYEAR=1985
DGENRE=Παραδοσιακή
TTITLE0=Τί σε μέλει εσένα
TTITLE1=Το πασούμι
TTITLE2=Ο Μποχώρης
TTITLE3=Από ξένο τόπο
TTITLE4=Αγιοθοδωρίτισσα
TTITLE5=Σκερτσοπεταχτό
TTITLE6=Η μπολσεβίκα
TTITLE7=Γκελ γκελ αμάν
TTITLE8=Η Έλλη
TTITLE9=Βάλε με στην αγκαλιά σου
TTITLE10=Ο φερετζές
TTITLE11=Αρμενίτσα
TTITLE12=Μέσ' στης Αθήνας τις ομορφιές
TTITLE13=Η Μαρίτσα η Σμυρνιά
EXTD=
EXTT0=
EXTT1=
EXTT2=
EXTT3=
EXTT4=
EXTT5=
EXTT6=
EXTT7=
EXTT8=
EXTT9=
EXTT10=
EXTT11=
EXTT12=
EXTT13=
PLAYORDER=
